P2
# Imagen .pgm generada desde tp0.exe
4 4
15
0
0
8
8
0
0
8
8
14
14
3
3
0
0
8
8
