P2
# Imagen .pgm generada desde tp0.exe
2 2
1
0
1
0
0
